<svg width="532" height="198" viewBox="0 0 532 198" fill="none" xmlns="http://www.w3.org/2000/svg">
<path d="M251.05 63C259.95 63 267.45 63.85 273.55 65.55C279.75 67.15 284.75 69.95 288.55 73.95C292.35 77.85 295.1 83.25 296.8 90.15C298.5 97.05 299.35 105.75 299.35 116.25C299.35 126.75 298.5 135.45 296.8 142.35C295.1 149.25 292.35 154.7 288.55 158.7C284.75 162.6 279.75 165.4 273.55 167.1C267.45 168.7 259.95 169.5 251.05 169.5C242.45 169.5 234.55 169.35 227.35 169.05C220.15 168.75 213.3 168.4 206.8 168L220 144.9C223.5 145.3 227.9 145.6 233.2 145.8C238.6 145.9 244.55 145.95 251.05 145.95C254.75 145.95 257.6 145.15 259.6 143.55C261.6 141.95 263 139 263.8 134.7C264.6 130.4 265 124.25 265 116.25C265 108.25 264.6 102.1 263.8 97.8C263 93.5 261.6 90.55 259.6 88.95C257.6 87.35 254.75 86.55 251.05 86.55C244.95 86.55 239.55 86.55 234.85 86.55C230.25 86.55 225.75 86.5 221.35 86.4L206.8 64.5C213.4 64.1 220.2 63.75 227.2 63.45C234.3 63.15 242.25 63 251.05 63ZM239.35 64.5V168H206.8V64.5H239.35ZM342.576 93V168H311.226V93H342.576ZM333.576 58.65C339.676 58.65 342.726 61.75 342.726 67.95V75.6C342.726 81.8 339.676 84.9 333.576 84.9H320.226C314.126 84.9 311.076 81.8 311.076 75.6V67.95C311.076 61.75 314.126 58.65 320.226 58.65H333.576ZM411.386 91.2C421.186 91.2 428.136 94.7 432.236 101.7C436.336 108.7 438.386 118.6 438.386 131.4C438.386 141.7 437.286 149.65 435.086 155.25C432.986 160.85 429.836 164.75 425.636 166.95C421.436 169.05 416.236 170.1 410.036 170.1C404.336 170.1 398.986 169.25 393.986 167.55C389.086 165.85 385.136 162.9 382.136 158.7L384.236 146.4C386.236 147.1 388.136 147.8 389.936 148.5C391.836 149.2 394.336 149.55 397.436 149.55C399.536 149.55 401.186 149.2 402.386 148.5C403.686 147.7 404.586 146.05 405.086 143.55C405.686 140.95 405.986 137 405.986 131.7C405.986 126.3 405.686 122.35 405.086 119.85C404.586 117.25 403.736 115.6 402.536 114.9C401.336 114.2 399.786 113.85 397.886 113.85C395.286 113.85 393.236 114.15 391.736 114.75C390.236 115.25 388.686 115.9 387.086 116.7L382.736 104.85C384.036 102.35 386.086 100.1 388.886 98.1C391.786 96 395.186 94.35 399.086 93.15C402.986 91.85 407.086 91.2 411.386 91.2ZM381.236 93L384.236 104.85L387.536 107.25V156.9L386.636 158.7C386.936 161.9 387.186 165.4 387.386 169.2C387.586 173 387.636 176.65 387.536 180.15V195H356.036V93H381.236ZM488.954 90.9C503.054 90.9 513.054 93.15 518.954 97.65C524.854 102.15 527.854 108.8 527.954 117.6C528.054 124.6 525.954 129.65 521.654 132.75C517.454 135.85 509.854 137.4 498.854 137.4H458.504V122.55H490.004C493.404 122.55 495.554 122.25 496.454 121.65C497.354 120.95 497.804 119.35 497.804 116.85C497.804 114.45 497.204 112.9 496.004 112.2C494.804 111.5 492.754 111.15 489.854 111.15C486.954 111.05 484.754 111.35 483.254 112.05C481.754 112.75 480.704 114.3 480.104 116.7C479.604 119 479.354 122.65 479.354 127.65C479.354 132.25 479.654 135.85 480.254 138.45C480.954 141.05 482.254 142.9 484.154 144C486.054 145.1 488.854 145.65 492.554 145.65C495.554 145.65 499.754 145.55 505.154 145.35C510.654 145.15 516.604 144.7 523.004 144L525.854 162.9C522.354 164.7 518.604 166.1 514.604 167.1C510.604 168.1 506.454 168.8 502.154 169.2C497.954 169.6 493.604 169.8 489.104 169.8C478.704 169.8 470.354 168.35 464.054 165.45C457.754 162.55 453.204 158.25 450.404 152.55C447.704 146.75 446.354 139.6 446.354 131.1C446.354 121.2 447.754 113.35 450.554 107.55C453.354 101.65 457.854 97.4 464.054 94.8C470.354 92.2 478.654 90.9 488.954 90.9Z" fill="#0B334C"/>
<path d="M13.4234 68.6221L24.6181 101.772C25.7126 105.014 23.3019 108.372 19.8809 108.372H6.96587C3.54483 108.372 1.13415 105.014 2.2287 101.772L13.4234 68.6221Z" fill="#FBD301"/>
<path d="M13.4234 68.6221L24.6181 101.772C25.7126 105.014 23.3019 108.372 19.8809 108.372H6.96587C3.54483 108.372 1.13415 105.014 2.2287 101.772L13.4234 68.6221Z" fill="url(#paint0_linear_85_430)" fill-opacity="0.2" style="mix-blend-mode:plus-darker"/>
<path d="M22.9234 76.1221C22.9234 81.3688 18.6701 85.6221 13.4234 85.6221C8.17669 85.6221 3.92339 81.3688 3.92339 76.1221C3.92339 70.8754 8.17669 66.6221 13.4234 66.6221C18.6701 66.6221 22.9234 70.8754 22.9234 76.1221Z" fill="#FBD301"/>
<path d="M22.9234 76.1221C22.9234 81.3688 18.6701 85.6221 13.4234 85.6221C8.17669 85.6221 3.92339 81.3688 3.92339 76.1221C3.92339 70.8754 8.17669 66.6221 13.4234 66.6221C18.6701 66.6221 22.9234 70.8754 22.9234 76.1221Z" fill="url(#paint1_linear_85_430)" fill-opacity="0.2" style="mix-blend-mode:plus-darker"/>
<path d="M9.92339 40.6221H15.9234V68.6221H9.92339V40.6221Z" fill="#FBD301"/>
<path d="M9.92339 40.6221H15.9234V68.6221H9.92339V40.6221Z" fill="url(#paint2_linear_85_430)" fill-opacity="0.2" style="mix-blend-mode:plus-darker"/>
<path d="M209.897 36.8082C212.761 37.8283 212.481 42.0599 209.526 42.7752C170.222 52.289 135.215 69.6887 107.971 92.6319C106.832 93.5908 105.168 93.5906 104.029 92.631C76.9218 69.7738 42.8142 52.4185 4.2178 42.8817C1.28216 42.1564 0.999821 37.9583 3.842 36.9257L104.986 0.180315C105.641 -0.057857 106.359 -0.0601506 107.016 0.17383L209.897 36.8082Z" fill="#0B334C"/>
<path d="M169.484 155.27C169.484 155.889 168.927 156.359 168.315 156.264C164.134 155.615 159.816 155.274 155.401 155.274C135.788 155.274 119.073 161.989 106.668 172.727C106.284 173.059 105.716 173.059 105.332 172.729C92.8584 161.989 74.2145 155.275 54.6006 155.274C50.699 155.274 46.8734 155.54 43.1508 156.05C42.5446 156.133 42 155.665 42 155.053V64.2859C42 63.5877 42.698 63.1048 43.3502 63.3542C66.7418 72.2992 87.9298 84.8442 105.346 99.7498C105.723 100.072 106.278 100.072 106.654 99.7495C124.076 84.8274 144.733 72.2712 168.134 63.3236C168.786 63.0742 169.484 63.557 169.484 64.2551V155.27Z" fill="#3FA847"/>
<path d="M169.484 155.27C169.484 155.889 168.927 156.359 168.315 156.264C164.134 155.615 159.816 155.274 155.401 155.274C135.788 155.274 119.073 161.989 106.668 172.727C106.284 173.059 105.716 173.059 105.332 172.729C92.8584 161.989 74.2145 155.275 54.6006 155.274C50.699 155.274 46.8734 155.54 43.1508 156.05C42.5446 156.133 42 155.665 42 155.053V64.2859C42 63.5877 42.698 63.1048 43.3502 63.3542C66.7418 72.2992 87.9298 84.8442 105.346 99.7498C105.723 100.072 106.278 100.072 106.654 99.7495C124.076 84.8274 144.733 72.2712 168.134 63.3236C168.786 63.0742 169.484 63.557 169.484 64.2551V155.27Z" fill="url(#paint3_linear_85_430)" fill-opacity="0.1" style="mix-blend-mode:plus-darker"/>
<path d="M182.489 67.4074C184.414 66.8074 186.355 68.2483 186.355 70.2531V165.84C186.355 167.699 184.672 169.102 182.827 168.797C179.052 168.172 176.366 167.847 171.419 167.847C146.258 167.847 124.357 175.365 108.085 188.812C106.904 189.788 105.181 189.789 104 188.812C87.7278 175.365 64.151 167.847 38.9902 167.847C34.7371 167.847 32.5684 168.088 29.4727 168.552C27.6451 168.826 26 167.429 26 165.592V70.2776C26 68.2723 27.9421 66.831 29.8672 67.4319C31.1707 67.8387 32.4676 68.2558 33.7578 68.6828C34.9811 69.0877 35.7998 70.2297 35.7998 71.511V158.611C35.7998 160.447 37.4456 161.85 39.2822 161.644C42.6907 161.261 46.1726 161.063 49.7109 161.063C70.685 161.063 90.3481 167.176 104 178.312C105.189 179.282 106.913 179.282 108.103 178.312C121.755 167.176 140.034 161.063 161.008 161.063C165.095 161.063 169.106 161.327 173.017 161.835C174.872 162.076 176.555 160.668 176.556 158.809V71.4846C176.556 70.2029 177.375 69.061 178.599 68.6565C179.889 68.23 181.186 67.8138 182.489 67.4074Z" fill="#0B334C"/>
<path d="M160.298 98.3651C160.969 98.4215 161.424 99.0728 161.248 99.7228L153.147 129.595C152.836 130.738 151.175 130.617 151.034 129.44L149.614 117.539C149.432 116.015 147.674 115.255 146.44 116.167L107.422 144.983C106.72 145.501 105.763 145.505 105.057 144.991L57.459 110.338C56.1866 109.412 56.4332 107.447 57.895 106.864L60.1562 105.962C60.7098 105.741 61.3331 105.778 61.8562 106.064L105.11 129.694C105.8 130.07 106.646 130.008 107.273 129.535L138.57 105.933C139.753 105.041 139.589 103.218 138.267 102.55L128.879 97.8115C127.821 97.2769 128.274 95.6738 129.456 95.7731L160.298 98.3651Z" fill="white"/>
<defs>
<linearGradient id="paint0_linear_85_430" x1="13" y1="43.8125" x2="13" y2="52.3125" gradientUnits="userSpaceOnUse">
<stop/>
<stop offset="1" stop-opacity="0"/>
</linearGradient>
<linearGradient id="paint1_linear_85_430" x1="13" y1="43.8125" x2="13" y2="52.3125" gradientUnits="userSpaceOnUse">
<stop/>
<stop offset="1" stop-opacity="0"/>
</linearGradient>
<linearGradient id="paint2_linear_85_430" x1="13" y1="43.8125" x2="13" y2="52.3125" gradientUnits="userSpaceOnUse">
<stop/>
<stop offset="1" stop-opacity="0"/>
</linearGradient>
<linearGradient id="paint3_linear_85_430" x1="170" y1="116.813" x2="42" y2="115.813" gradientUnits="userSpaceOnUse">
<stop offset="0.3" stop-opacity="0"/>
<stop offset="0.500737"/>
<stop offset="0.7" stop-opacity="0"/>
</linearGradient>
</defs>
</svg>
