<svg width="333" height="334" viewBox="0 0 333 334" fill="none" xmlns="http://www.w3.org/2000/svg">
<path d="M73.4234 68.6221L84.6181 101.772C85.7126 105.014 83.3019 108.372 79.8809 108.372H66.9659C63.5448 108.372 61.1342 105.014 62.2287 101.772L73.4234 68.6221Z" fill="#D9E5DD"/>
<path d="M82.9234 76.1221C82.9234 81.3688 78.6701 85.6221 73.4234 85.6221C68.1767 85.6221 63.9234 81.3688 63.9234 76.1221C63.9234 70.8754 68.1767 66.6221 73.4234 66.6221C78.6701 66.6221 82.9234 70.8754 82.9234 76.1221Z" fill="#D9E5DD"/>
<path d="M69.9234 40.6221H75.9234V68.6221H69.9234V40.6221Z" fill="#D9E5DD"/>
<path d="M269.897 36.8082C272.761 37.8283 272.481 42.0599 269.526 42.7752C230.222 52.289 195.215 69.6887 167.971 92.6319C166.832 93.5908 165.168 93.5906 164.029 92.631C136.922 69.7738 102.814 52.4185 64.2178 42.8817C61.2822 42.1564 60.9999 37.9583 63.842 36.9257L164.986 0.180315C165.641 -0.057857 166.359 -0.0601506 167.016 0.17383L269.897 36.8082Z" fill="#D9E5DD"/>
<path d="M242.489 67.4074C244.414 66.8074 246.355 68.2483 246.355 70.2531V165.84C246.355 167.699 244.672 169.102 242.827 168.797C239.052 168.172 236.366 167.847 231.419 167.847C206.258 167.847 184.357 175.365 168.085 188.812C166.904 189.788 165.181 189.789 164 188.812C147.728 175.365 124.151 167.847 98.9902 167.847C94.7371 167.847 92.5684 168.088 89.4727 168.552C87.6451 168.826 86 167.429 86 165.592V70.2776C86 68.2723 87.9421 66.831 89.8672 67.4319C91.1707 67.8387 92.4676 68.2558 93.7578 68.6828C94.9811 69.0877 95.7998 70.2297 95.7998 71.511V158.611C95.7998 160.447 97.4456 161.85 99.2822 161.644C102.691 161.261 106.173 161.063 109.711 161.063C130.685 161.063 150.348 167.176 164 178.312C165.189 179.282 166.913 179.282 168.103 178.312C181.755 167.176 200.034 161.063 221.008 161.063C225.095 161.063 229.106 161.327 233.017 161.835C234.872 162.076 236.555 160.668 236.556 158.809V71.4846C236.556 70.2029 237.375 69.061 238.599 68.6565C239.889 68.23 241.186 67.8138 242.489 67.4074Z" fill="#D9E5DD"/>
<path d="M228.134 63.3232C228.786 63.074 229.484 63.5569 229.484 64.2549V155.27C229.484 155.889 228.927 156.359 228.315 156.264C224.134 155.614 219.816 155.274 215.401 155.274C195.788 155.274 179.074 161.989 166.668 172.728C166.285 173.059 165.716 173.059 165.332 172.729C152.858 161.989 134.214 155.275 114.601 155.274C110.699 155.274 106.873 155.54 103.15 156.05C102.544 156.133 102 155.664 102 155.053V64.2861C102 63.5879 102.698 63.1051 103.351 63.3545C126.742 72.2995 147.93 84.8444 165.346 99.75C165.723 100.072 166.277 100.073 166.654 99.75C184.075 84.828 204.732 72.2708 228.134 63.3232ZM189.456 95.7734C188.275 95.6741 187.821 97.277 188.879 97.8115L198.268 102.551C199.589 103.218 199.753 105.041 198.57 105.933L167.273 129.535C166.646 130.008 165.8 130.07 165.11 129.693L121.856 106.064C121.333 105.779 120.71 105.741 120.156 105.962L117.895 106.863C116.433 107.447 116.187 109.412 117.459 110.338L165.057 144.991C165.762 145.505 166.72 145.501 167.422 144.982L206.439 116.167C207.673 115.256 209.431 116.016 209.613 117.539L211.034 129.44C211.175 130.617 212.836 130.738 213.146 129.595L221.248 99.7227C221.424 99.0728 220.969 98.4218 220.298 98.3652L189.456 95.7734Z" fill="#D9E5DD"/>
<path d="M52.05 199C60.95 199 68.45 199.85 74.55 201.55C80.75 203.15 85.75 205.95 89.55 209.95C93.35 213.85 96.1 219.25 97.8 226.15C99.5 233.05 100.35 241.75 100.35 252.25C100.35 262.75 99.5 271.45 97.8 278.35C96.1 285.25 93.35 290.7 89.55 294.7C85.75 298.6 80.75 301.4 74.55 303.1C68.45 304.7 60.95 305.5 52.05 305.5C43.45 305.5 35.55 305.35 28.35 305.05C21.15 304.75 14.3 304.4 7.8 304L21 280.9C24.5 281.3 28.9 281.6 34.2 281.8C39.6 281.9 45.55 281.95 52.05 281.95C55.75 281.95 58.6 281.15 60.6 279.55C62.6 277.95 64 275 64.8 270.7C65.6 266.4 66 260.25 66 252.25C66 244.25 65.6 238.1 64.8 233.8C64 229.5 62.6 226.55 60.6 224.95C58.6 223.35 55.75 222.55 52.05 222.55C45.95 222.55 40.55 222.55 35.85 222.55C31.25 222.55 26.75 222.5 22.35 222.4L7.8 200.5C14.4 200.1 21.2 199.75 28.2 199.45C35.3 199.15 43.25 199 52.05 199ZM40.35 200.5V304H7.8V200.5H40.35ZM143.576 229V304H112.226V229H143.576ZM134.576 194.65C140.676 194.65 143.726 197.75 143.726 203.95V211.6C143.726 217.8 140.676 220.9 134.576 220.9H121.226C115.126 220.9 112.076 217.8 112.076 211.6V203.95C112.076 197.75 115.126 194.65 121.226 194.65H134.576ZM212.386 227.2C222.186 227.2 229.136 230.7 233.236 237.7C237.336 244.7 239.386 254.6 239.386 267.4C239.386 277.7 238.286 285.65 236.086 291.25C233.986 296.85 230.836 300.75 226.636 302.95C222.436 305.05 217.236 306.1 211.036 306.1C205.336 306.1 199.986 305.25 194.986 303.55C190.086 301.85 186.136 298.9 183.136 294.7L185.236 282.4C187.236 283.1 189.136 283.8 190.936 284.5C192.836 285.2 195.336 285.55 198.436 285.55C200.536 285.55 202.186 285.2 203.386 284.5C204.686 283.7 205.586 282.05 206.086 279.55C206.686 276.95 206.986 273 206.986 267.7C206.986 262.3 206.686 258.35 206.086 255.85C205.586 253.25 204.736 251.6 203.536 250.9C202.336 250.2 200.786 249.85 198.886 249.85C196.286 249.85 194.236 250.15 192.736 250.75C191.236 251.25 189.686 251.9 188.086 252.7L183.736 240.85C185.036 238.35 187.086 236.1 189.886 234.1C192.786 232 196.186 230.35 200.086 229.15C203.986 227.85 208.086 227.2 212.386 227.2ZM182.236 229L185.236 240.85L188.536 243.25V292.9L187.636 294.7C187.936 297.9 188.186 301.4 188.386 305.2C188.586 309 188.636 312.65 188.536 316.15V331H157.036V229H182.236ZM289.954 226.9C304.054 226.9 314.054 229.15 319.954 233.65C325.854 238.15 328.854 244.8 328.954 253.6C329.054 260.6 326.954 265.65 322.654 268.75C318.454 271.85 310.854 273.4 299.854 273.4H259.504V258.55H291.004C294.404 258.55 296.554 258.25 297.454 257.65C298.354 256.95 298.804 255.35 298.804 252.85C298.804 250.45 298.204 248.9 297.004 248.2C295.804 247.5 293.754 247.15 290.854 247.15C287.954 247.05 285.754 247.35 284.254 248.05C282.754 248.75 281.704 250.3 281.104 252.7C280.604 255 280.354 258.65 280.354 263.65C280.354 268.25 280.654 271.85 281.254 274.45C281.954 277.05 283.254 278.9 285.154 280C287.054 281.1 289.854 281.65 293.554 281.65C296.554 281.65 300.754 281.55 306.154 281.35C311.654 281.15 317.604 280.7 324.004 280L326.854 298.9C323.354 300.7 319.604 302.1 315.604 303.1C311.604 304.1 307.454 304.8 303.154 305.2C298.954 305.6 294.604 305.8 290.104 305.8C279.704 305.8 271.354 304.35 265.054 301.45C258.754 298.55 254.204 294.25 251.404 288.55C248.704 282.75 247.354 275.6 247.354 267.1C247.354 257.2 248.754 249.35 251.554 243.55C254.354 237.65 258.854 233.4 265.054 230.8C271.354 228.2 279.654 226.9 289.954 226.9Z" fill="#D9E5DD"/>
</svg>
