<svg width="535" height="198" viewBox="0 0 535 198" fill="none" xmlns="http://www.w3.org/2000/svg">
<path d="M251.05 63C259.95 63 267.45 63.85 273.55 65.55C279.75 67.15 284.75 69.95 288.55 73.95C292.35 77.85 295.1 83.25 296.8 90.15C298.5 97.05 299.35 105.75 299.35 116.25C299.35 126.75 298.5 135.45 296.8 142.35C295.1 149.25 292.35 154.7 288.55 158.7C284.75 162.6 279.75 165.4 273.55 167.1C267.45 168.7 259.95 169.5 251.05 169.5C242.45 169.5 234.55 169.35 227.35 169.05C220.15 168.75 213.3 168.4 206.8 168L220 144.9C223.5 145.3 227.9 145.6 233.2 145.8C238.6 145.9 244.55 145.95 251.05 145.95C254.75 145.95 257.6 145.15 259.6 143.55C261.6 141.95 263 139 263.8 134.7C264.6 130.4 265 124.25 265 116.25C265 108.25 264.6 102.1 263.8 97.8C263 93.5 261.6 90.55 259.6 88.95C257.6 87.35 254.75 86.55 251.05 86.55C244.95 86.55 239.55 86.55 234.85 86.55C230.25 86.55 225.75 86.5 221.35 86.4L206.8 64.5C213.4 64.1 220.2 63.75 227.2 63.45C234.3 63.15 242.25 63 251.05 63ZM239.35 64.5V168H206.8V64.5H239.35ZM344.376 64.5V168H312.126V64.5H344.376ZM403.969 63C414.969 63 423.569 64.05 429.769 66.15C435.969 68.15 440.369 71.7 442.969 76.8C445.569 81.9 446.869 89.05 446.869 98.25C446.869 107.35 445.619 114.45 443.119 119.55C440.719 124.55 436.719 128.1 431.119 130.2C425.519 132.2 417.969 133.2 408.469 133.2C403.469 133.2 398.469 132.95 393.469 132.45C388.469 131.85 383.769 131.15 379.369 130.35C375.069 129.45 371.369 128.55 368.269 127.65C365.169 126.65 363.019 125.75 361.819 124.95L362.269 110.25C368.769 110.25 375.519 110.25 382.519 110.25C389.519 110.25 396.419 110.25 403.219 110.25C406.219 110.25 408.519 109.95 410.119 109.35C411.719 108.65 412.819 107.45 413.419 105.75C414.019 103.95 414.319 101.45 414.319 98.25C414.319 94.95 414.019 92.4 413.419 90.6C412.819 88.8 411.719 87.6 410.119 87C408.519 86.3 406.219 85.95 403.219 85.95C393.019 85.95 384.319 86 377.119 86.1C369.919 86.2 365.019 86.4 362.419 86.7L360.169 64.5C364.769 64 369.069 63.65 373.069 63.45C377.169 63.25 381.619 63.15 386.419 63.15C391.219 63.05 397.069 63 403.969 63ZM392.719 64.5V168H360.169V64.5H392.719ZM480.692 63.9C486.692 63.9 492.842 63.95 499.142 64.05C505.542 64.05 511.792 64.2 517.892 64.5C523.992 64.7 529.542 65.15 534.542 65.85L533.042 88.8H495.092C493.192 88.8 491.692 89.3 490.592 90.3C489.492 91.3 488.942 92.6 488.942 94.2V138.3C488.942 139.9 489.492 141.2 490.592 142.2C491.692 143.2 493.192 143.7 495.092 143.7H533.042L534.542 166.65C529.542 167.25 523.992 167.7 517.892 168C511.792 168.3 505.542 168.45 499.142 168.45C492.842 168.55 486.692 168.6 480.692 168.6C473.592 168.6 467.742 166.45 463.142 162.15C458.642 157.75 456.392 152.05 456.392 145.05V87.45C456.392 80.45 458.642 74.8 463.142 70.5C467.742 66.1 473.592 63.9 480.692 63.9ZM459.092 104.25H527.642V125.85H459.092V104.25Z" fill="#0B334C"/>
<path d="M13.4234 68.6221L24.6181 101.772C25.7126 105.014 23.3019 108.372 19.8809 108.372H6.96587C3.54483 108.372 1.13415 105.014 2.2287 101.772L13.4234 68.6221Z" fill="#FBD301"/>
<path d="M13.4234 68.6221L24.6181 101.772C25.7126 105.014 23.3019 108.372 19.8809 108.372H6.96587C3.54483 108.372 1.13415 105.014 2.2287 101.772L13.4234 68.6221Z" fill="url(#paint0_linear_85_430)" fill-opacity="0.2" style="mix-blend-mode:plus-darker"/>
<path d="M22.9234 76.1221C22.9234 81.3688 18.6701 85.6221 13.4234 85.6221C8.17669 85.6221 3.92339 81.3688 3.92339 76.1221C3.92339 70.8754 8.17669 66.6221 13.4234 66.6221C18.6701 66.6221 22.9234 70.8754 22.9234 76.1221Z" fill="#FBD301"/>
<path d="M22.9234 76.1221C22.9234 81.3688 18.6701 85.6221 13.4234 85.6221C8.17669 85.6221 3.92339 81.3688 3.92339 76.1221C3.92339 70.8754 8.17669 66.6221 13.4234 66.6221C18.6701 66.6221 22.9234 70.8754 22.9234 76.1221Z" fill="url(#paint1_linear_85_430)" fill-opacity="0.2" style="mix-blend-mode:plus-darker"/>
<path d="M9.92339 40.6221H15.9234V68.6221H9.92339V40.6221Z" fill="#FBD301"/>
<path d="M9.92339 40.6221H15.9234V68.6221H9.92339V40.6221Z" fill="url(#paint2_linear_85_430)" fill-opacity="0.2" style="mix-blend-mode:plus-darker"/>
<path d="M209.897 36.8082C212.761 37.8283 212.481 42.0599 209.526 42.7752C170.222 52.289 135.215 69.6887 107.971 92.6319C106.832 93.5908 105.168 93.5906 104.029 92.631C76.9218 69.7738 42.8142 52.4185 4.2178 42.8817C1.28216 42.1564 0.999821 37.9583 3.842 36.9257L104.986 0.180315C105.641 -0.057857 106.359 -0.0601506 107.016 0.17383L209.897 36.8082Z" fill="#0B334C"/>
<path d="M169.484 155.27C169.484 155.889 168.927 156.359 168.315 156.264C164.134 155.615 159.816 155.274 155.401 155.274C135.788 155.274 119.073 161.989 106.668 172.727C106.284 173.059 105.716 173.059 105.332 172.729C92.8584 161.989 74.2145 155.275 54.6006 155.274C50.699 155.274 46.8734 155.54 43.1508 156.05C42.5446 156.133 42 155.665 42 155.053V64.2859C42 63.5877 42.698 63.1048 43.3502 63.3542C66.7418 72.2992 87.9298 84.8442 105.346 99.7498C105.723 100.072 106.278 100.072 106.654 99.7495C124.076 84.8274 144.733 72.2712 168.134 63.3236C168.786 63.0742 169.484 63.557 169.484 64.2551V155.27Z" fill="#3FA847"/>
<path d="M169.484 155.27C169.484 155.889 168.927 156.359 168.315 156.264C164.134 155.615 159.816 155.274 155.401 155.274C135.788 155.274 119.073 161.989 106.668 172.727C106.284 173.059 105.716 173.059 105.332 172.729C92.8584 161.989 74.2145 155.275 54.6006 155.274C50.699 155.274 46.8734 155.54 43.1508 156.05C42.5446 156.133 42 155.665 42 155.053V64.2859C42 63.5877 42.698 63.1048 43.3502 63.3542C66.7418 72.2992 87.9298 84.8442 105.346 99.7498C105.723 100.072 106.278 100.072 106.654 99.7495C124.076 84.8274 144.733 72.2712 168.134 63.3236C168.786 63.0742 169.484 63.557 169.484 64.2551V155.27Z" fill="url(#paint3_linear_85_430)" fill-opacity="0.1" style="mix-blend-mode:plus-darker"/>
<path d="M182.489 67.4074C184.414 66.8074 186.355 68.2483 186.355 70.2531V165.84C186.355 167.699 184.672 169.102 182.827 168.797C179.052 168.172 176.366 167.847 171.419 167.847C146.258 167.847 124.357 175.365 108.085 188.812C106.904 189.788 105.181 189.789 104 188.812C87.7278 175.365 64.151 167.847 38.9902 167.847C34.7371 167.847 32.5684 168.088 29.4727 168.552C27.6451 168.826 26 167.429 26 165.592V70.2776C26 68.2723 27.9421 66.831 29.8672 67.4319C31.1707 67.8387 32.4676 68.2558 33.7578 68.6828C34.9811 69.0877 35.7998 70.2297 35.7998 71.511V158.611C35.7998 160.447 37.4456 161.85 39.2822 161.644C42.6907 161.261 46.1726 161.063 49.7109 161.063C70.685 161.063 90.3481 167.176 104 178.312C105.189 179.282 106.913 179.282 108.103 178.312C121.755 167.176 140.034 161.063 161.008 161.063C165.095 161.063 169.106 161.327 173.017 161.835C174.872 162.076 176.555 160.668 176.556 158.809V71.4846C176.556 70.2029 177.375 69.061 178.599 68.6565C179.889 68.23 181.186 67.8138 182.489 67.4074Z" fill="#0B334C"/>
<path d="M160.298 98.3651C160.969 98.4215 161.424 99.0728 161.248 99.7228L153.147 129.595C152.836 130.738 151.175 130.617 151.034 129.44L149.614 117.539C149.432 116.015 147.674 115.255 146.44 116.167L107.422 144.983C106.72 145.501 105.763 145.505 105.057 144.991L57.459 110.338C56.1866 109.412 56.4332 107.447 57.895 106.864L60.1562 105.962C60.7098 105.741 61.3331 105.778 61.8562 106.064L105.11 129.694C105.8 130.07 106.646 130.008 107.273 129.535L138.57 105.933C139.753 105.041 139.589 103.218 138.267 102.55L128.879 97.8115C127.821 97.2769 128.274 95.6738 129.456 95.7731L160.298 98.3651Z" fill="white"/>
<defs>
<linearGradient id="paint0_linear_85_430" x1="13" y1="43.8125" x2="13" y2="52.3125" gradientUnits="userSpaceOnUse">
<stop/>
<stop offset="1" stop-opacity="0"/>
</linearGradient>
<linearGradient id="paint1_linear_85_430" x1="13" y1="43.8125" x2="13" y2="52.3125" gradientUnits="userSpaceOnUse">
<stop/>
<stop offset="1" stop-opacity="0"/>
</linearGradient>
<linearGradient id="paint2_linear_85_430" x1="13" y1="43.8125" x2="13" y2="52.3125" gradientUnits="userSpaceOnUse">
<stop/>
<stop offset="1" stop-opacity="0"/>
</linearGradient>
<linearGradient id="paint3_linear_85_430" x1="170" y1="116.813" x2="42" y2="115.813" gradientUnits="userSpaceOnUse">
<stop offset="0.3" stop-opacity="0"/>
<stop offset="0.500737"/>
<stop offset="0.7" stop-opacity="0"/>
</linearGradient>
</defs>
</svg>
