<svg width="290" height="321" viewBox="0 0 290 321" fill="none" xmlns="http://www.w3.org/2000/svg">
<path d="M51.4234 68.6221L62.6181 101.772C63.7126 105.014 61.3019 108.372 57.8809 108.372H44.9659C41.5448 108.372 39.1342 105.014 40.2287 101.772L51.4234 68.6221Z" fill="#D9E5DD"/>
<path d="M60.9234 76.1221C60.9234 81.3688 56.6701 85.6221 51.4234 85.6221C46.1767 85.6221 41.9234 81.3688 41.9234 76.1221C41.9234 70.8754 46.1767 66.6221 51.4234 66.6221C56.6701 66.6221 60.9234 70.8754 60.9234 76.1221Z" fill="#D9E5DD"/>
<path d="M47.9234 40.6221H53.9234V68.6221H47.9234V40.6221Z" fill="#D9E5DD"/>
<path d="M247.897 36.8082C250.761 37.8283 250.481 42.0599 247.526 42.7752C208.222 52.289 173.215 69.6887 145.971 92.6319C144.832 93.5908 143.168 93.5906 142.029 92.631C114.922 69.7738 80.8142 52.4185 42.2178 42.8817C39.2822 42.1564 38.9999 37.9583 41.842 36.9257L142.986 0.180315C143.641 -0.057857 144.359 -0.0601506 145.016 0.17383L247.897 36.8082Z" fill="#D9E5DD"/>
<path d="M220.489 67.4074C222.414 66.8074 224.355 68.2483 224.355 70.2531V165.84C224.355 167.699 222.672 169.102 220.827 168.797C217.052 168.172 214.366 167.847 209.419 167.847C184.258 167.847 162.357 175.365 146.085 188.812C144.904 189.788 143.181 189.789 142 188.812C125.728 175.365 102.151 167.847 76.9902 167.847C72.7371 167.847 70.5684 168.088 67.4727 168.552C65.6451 168.826 64 167.429 64 165.592V70.2776C64 68.2723 65.9421 66.831 67.8672 67.4319C69.1707 67.8387 70.4676 68.2558 71.7578 68.6828C72.9811 69.0877 73.7998 70.2297 73.7998 71.511V158.611C73.7998 160.447 75.4456 161.85 77.2822 161.644C80.6907 161.261 84.1726 161.063 87.7109 161.063C108.685 161.063 128.348 167.176 142 178.312C143.189 179.282 144.913 179.282 146.103 178.312C159.755 167.176 178.034 161.063 199.008 161.063C203.095 161.063 207.106 161.327 211.017 161.835C212.872 162.076 214.555 160.668 214.556 158.809V71.4846C214.556 70.2029 215.375 69.061 216.599 68.6565C217.889 68.23 219.186 67.8138 220.489 67.4074Z" fill="#D9E5DD"/>
<path d="M206.134 63.3232C206.786 63.074 207.484 63.5569 207.484 64.2549V155.27C207.484 155.889 206.927 156.359 206.315 156.264C202.134 155.614 197.816 155.274 193.401 155.274C173.788 155.274 157.074 161.989 144.668 172.728C144.285 173.059 143.716 173.059 143.332 172.729C130.858 161.989 112.214 155.275 92.6006 155.274C88.699 155.274 84.873 155.54 81.1504 156.05C80.5443 156.133 80 155.664 80 155.053V64.2861C80 63.5879 80.6984 63.1051 81.3506 63.3545C104.742 72.2995 125.93 84.8444 143.346 99.75C143.723 100.072 144.277 100.073 144.654 99.75C162.075 84.828 182.732 72.2708 206.134 63.3232ZM167.456 95.7734C166.275 95.6741 165.821 97.277 166.879 97.8115L176.268 102.551C177.589 103.218 177.753 105.041 176.57 105.933L145.273 129.535C144.646 130.008 143.8 130.07 143.11 129.693L99.8564 106.064C99.3334 105.779 98.7099 105.741 98.1562 105.962L95.8945 106.863C94.433 107.447 94.1869 109.412 95.459 110.338L143.057 144.991C143.762 145.505 144.72 145.501 145.422 144.982L184.439 116.167C185.673 115.256 187.431 116.016 187.613 117.539L189.034 129.44C189.175 130.617 190.836 130.738 191.146 129.595L199.248 99.7227C199.424 99.0728 198.969 98.4218 198.298 98.3652L167.456 95.7734Z" fill="#D9E5DD"/>
<path d="M44.416 205.4C52.0107 205.4 58.4107 206.125 63.616 207.576C68.9067 208.941 73.1733 211.331 76.416 214.744C79.6587 218.072 82.0053 222.68 83.456 228.568C84.9067 234.456 85.632 241.88 85.632 250.84C85.632 259.8 84.9067 267.224 83.456 273.112C82.0053 279 79.6587 283.651 76.416 287.064C73.1733 290.392 68.9067 292.781 63.616 294.232C58.4107 295.597 52.0107 296.28 44.416 296.28C37.0773 296.28 30.336 296.152 24.192 295.896C18.048 295.64 12.2027 295.341 6.656 295L17.92 275.288C20.9067 275.629 24.6613 275.885 29.184 276.056C33.792 276.141 38.8693 276.184 44.416 276.184C47.5733 276.184 50.0053 275.501 51.712 274.136C53.4187 272.771 54.6133 270.253 55.296 266.584C55.9787 262.915 56.32 257.667 56.32 250.84C56.32 244.013 55.9787 238.765 55.296 235.096C54.6133 231.427 53.4187 228.909 51.712 227.544C50.0053 226.179 47.5733 225.496 44.416 225.496C39.2107 225.496 34.6027 225.496 30.592 225.496C26.6667 225.496 22.8267 225.453 19.072 225.368L6.656 206.68C12.288 206.339 18.0907 206.04 24.064 205.784C30.1227 205.528 36.9067 205.4 44.416 205.4ZM34.432 206.68V295H6.656V206.68H34.432ZM124.054 206.68V295H96.534V206.68H124.054ZM174.907 205.4C184.294 205.4 191.632 206.296 196.923 208.088C202.214 209.795 205.968 212.824 208.187 217.176C210.406 221.528 211.515 227.629 211.515 235.48C211.515 243.245 210.448 249.304 208.315 253.656C206.267 257.923 202.854 260.952 198.075 262.744C193.296 264.451 186.854 265.304 178.747 265.304C174.48 265.304 170.214 265.091 165.947 264.664C161.68 264.152 157.67 263.555 153.915 262.872C150.246 262.104 147.088 261.336 144.443 260.568C141.798 259.715 139.963 258.947 138.939 258.264L139.323 245.72C144.87 245.72 150.63 245.72 156.603 245.72C162.576 245.72 168.464 245.72 174.267 245.72C176.827 245.72 178.79 245.464 180.155 244.952C181.52 244.355 182.459 243.331 182.971 241.88C183.483 240.344 183.739 238.211 183.739 235.48C183.739 232.664 183.483 230.488 182.971 228.952C182.459 227.416 181.52 226.392 180.155 225.88C178.79 225.283 176.827 224.984 174.267 224.984C165.563 224.984 158.139 225.027 151.995 225.112C145.851 225.197 141.67 225.368 139.451 225.624L137.531 206.68C141.456 206.253 145.126 205.955 148.539 205.784C152.038 205.613 155.835 205.528 159.931 205.528C164.027 205.443 169.019 205.4 174.907 205.4ZM165.307 206.68V295H137.531V206.68H165.307ZM240.377 206.168C245.497 206.168 250.745 206.211 256.121 206.296C261.582 206.296 266.916 206.424 272.121 206.68C277.326 206.851 282.062 207.235 286.329 207.832L285.049 227.416H252.665C251.044 227.416 249.764 227.843 248.825 228.696C247.886 229.549 247.417 230.659 247.417 232.024V269.656C247.417 271.021 247.886 272.131 248.825 272.984C249.764 273.837 251.044 274.264 252.665 274.264H285.049L286.329 293.848C282.062 294.36 277.326 294.744 272.121 295C266.916 295.256 261.582 295.384 256.121 295.384C250.745 295.469 245.497 295.512 240.377 295.512C234.318 295.512 229.326 293.677 225.401 290.008C221.561 286.253 219.641 281.389 219.641 275.416V226.264C219.641 220.291 221.561 215.469 225.401 211.8C229.326 208.045 234.318 206.168 240.377 206.168ZM221.945 240.6H280.441V259.032H221.945V240.6Z" fill="#D9E5DD"/>
</svg>
