<svg width="531" height="201" viewBox="0 0 531 201" fill="none" xmlns="http://www.w3.org/2000/svg">
<path d="M13.4234 70L24.6181 103.15C25.7126 106.391 23.3019 109.75 19.8809 109.75H6.96587C3.54483 109.75 1.13415 106.391 2.2287 103.15L13.4234 70Z" fill="#FEC025"/>
<path d="M22.9234 77.5C22.9234 82.7467 18.6701 87 13.4234 87C8.17669 87 3.92339 82.7467 3.92339 77.5C3.92339 72.2533 8.17669 68 13.4234 68C18.6701 68 22.9234 72.2533 22.9234 77.5Z" fill="#FEC025"/>
<path d="M9.92339 42H15.9234V70H9.92339V42Z" fill="#FEC025"/>
<path d="M212.215 37.2067C215.064 38.2381 214.778 42.4468 211.835 43.1651C172.792 52.6926 138.155 70.1131 110.926 93.0585C109.788 94.0178 108.124 94.0178 106.985 93.0585C79.833 70.1774 45.3134 52.7906 6.40515 43.2458C3.46246 42.5239 3.18168 38.3141 6.03204 37.2865L108.436 0.368232C109.095 0.130683 109.816 0.131177 110.475 0.369632L212.215 37.2067Z" fill="#0B334C"/>
<path d="M188.355 167.217C188.355 169.076 186.683 170.48 184.849 170.174C181.097 169.549 178.428 169.224 173.512 169.224C148.507 169.224 125.91 176.703 109.739 190.15C108.565 191.126 106.853 191.126 105.679 190.15C89.5086 176.703 66.9131 169.224 41.9092 169.224C37.6825 169.224 35.5273 169.464 32.4507 169.928C30.6346 170.202 29 168.806 29 166.969V71.6544C29 69.6491 30.9296 68.2082 32.8427 68.8091C34.1382 69.216 35.4272 69.6329 36.7095 70.06C37.9252 70.4649 38.7383 71.6066 38.7383 72.8879V159.987C38.7383 161.824 40.3744 163.227 42.1999 163.02C45.5872 162.637 49.0471 162.44 52.5635 162.44C73.4067 162.44 92.259 168.492 105.826 179.629C107.008 180.599 108.721 180.599 109.903 179.629C123.47 168.492 142.323 162.44 163.166 162.44C167.227 162.44 171.213 162.704 175.099 163.212C176.943 163.453 178.617 162.045 178.617 160.185V72.8613C178.617 71.5796 179.431 70.4377 180.647 70.0331C181.929 69.6066 183.218 69.1903 184.514 68.7839C186.427 68.1839 188.355 69.6247 188.355 71.6295V167.217Z" fill="#0B334C"/>
<path d="M172.42 158.699C167.876 157.926 163.165 157.52 158.337 157.52C138.37 157.52 120.407 164.472 107.937 175.552C95.4658 164.472 77.5031 157.52 57.5361 157.52C53.2313 157.52 49.0191 157.843 44.9355 158.461V65.0879C69.157 74.1739 90.7677 86.8802 108.639 102.32C126.529 86.8635 148.167 74.1459 172.42 65.0576V158.699Z" fill="#3FA847"/>
<path d="M57.8408 147.205C56.2732 145.642 56.2732 143.103 57.8408 141.54L85.0294 114.431C86.5906 112.874 89.1169 112.874 90.678 114.431L92.1495 115.898C93.7171 117.461 93.7171 120 92.1495 121.563L64.9608 148.672C63.3997 150.229 60.8734 150.229 59.3122 148.672L57.8408 147.205Z" fill="white"/>
<path d="M157.907 122.171C155.698 122.171 153.907 120.38 153.907 118.171V99C153.907 96.7909 155.698 95 157.907 95H164V118.171C164 120.38 162.209 122.171 160 122.171H157.907Z" fill="white"/>
<path d="M136.75 99C136.75 96.7909 138.541 95 140.75 95H164V101.063C164 103.272 162.209 105.063 160 105.063H140.75C138.541 105.063 136.75 103.272 136.75 101.063V99Z" fill="white"/>
<path d="M109.313 147.717C107.745 146.154 107.745 143.615 109.313 142.052L148.992 102.489C150.553 100.932 153.079 100.932 154.64 102.489L156.112 103.956C157.679 105.519 157.679 108.058 156.112 109.621L116.433 149.184C114.872 150.741 112.346 150.741 110.784 149.184L109.313 147.717Z" fill="white"/>
<path d="M85.3798 114.924C86.941 113.367 89.4673 113.367 91.0284 114.924L118.217 142.033C119.785 143.596 119.785 146.135 118.217 147.698L116.746 149.165C115.184 150.722 112.658 150.722 111.097 149.165L83.9084 122.056C82.3408 120.493 82.3408 117.954 83.9084 116.391L85.3798 114.924Z" fill="white"/>
<path d="M250.05 66C258.95 66 266.45 66.85 272.55 68.55C278.75 70.15 283.75 72.95 287.55 76.95C291.35 80.85 294.1 86.25 295.8 93.15C297.5 100.05 298.35 108.75 298.35 119.25C298.35 129.75 297.5 138.45 295.8 145.35C294.1 152.25 291.35 157.7 287.55 161.7C283.75 165.6 278.75 168.4 272.55 170.1C266.45 171.7 258.95 172.5 250.05 172.5C241.45 172.5 233.55 172.35 226.35 172.05C219.15 171.75 212.3 171.4 205.8 171L219 147.9C222.5 148.3 226.9 148.6 232.2 148.8C237.6 148.9 243.55 148.95 250.05 148.95C253.75 148.95 256.6 148.15 258.6 146.55C260.6 144.95 262 142 262.8 137.7C263.6 133.4 264 127.25 264 119.25C264 111.25 263.6 105.1 262.8 100.8C262 96.5 260.6 93.55 258.6 91.95C256.6 90.35 253.75 89.55 250.05 89.55C243.95 89.55 238.55 89.55 233.85 89.55C229.25 89.55 224.75 89.5 220.35 89.4L205.8 67.5C212.4 67.1 219.2 66.75 226.2 66.45C233.3 66.15 241.25 66 250.05 66ZM238.35 67.5V171H205.8V67.5H238.35ZM341.576 96V171H310.226V96H341.576ZM332.576 61.65C338.676 61.65 341.726 64.75 341.726 70.95V78.6C341.726 84.8 338.676 87.9 332.576 87.9H319.226C313.126 87.9 310.076 84.8 310.076 78.6V70.95C310.076 64.75 313.126 61.65 319.226 61.65H332.576ZM410.386 94.2C420.186 94.2 427.136 97.7 431.236 104.7C435.336 111.7 437.386 121.6 437.386 134.4C437.386 144.7 436.286 152.65 434.086 158.25C431.986 163.85 428.836 167.75 424.636 169.95C420.436 172.05 415.236 173.1 409.036 173.1C403.336 173.1 397.986 172.25 392.986 170.55C388.086 168.85 384.136 165.9 381.136 161.7L383.236 149.4C385.236 150.1 387.136 150.8 388.936 151.5C390.836 152.2 393.336 152.55 396.436 152.55C398.536 152.55 400.186 152.2 401.386 151.5C402.686 150.7 403.586 149.05 404.086 146.55C404.686 143.95 404.986 140 404.986 134.7C404.986 129.3 404.686 125.35 404.086 122.85C403.586 120.25 402.736 118.6 401.536 117.9C400.336 117.2 398.786 116.85 396.886 116.85C394.286 116.85 392.236 117.15 390.736 117.75C389.236 118.25 387.686 118.9 386.086 119.7L381.736 107.85C383.036 105.35 385.086 103.1 387.886 101.1C390.786 99 394.186 97.35 398.086 96.15C401.986 94.85 406.086 94.2 410.386 94.2ZM380.236 96L383.236 107.85L386.536 110.25V159.9L385.636 161.7C385.936 164.9 386.186 168.4 386.386 172.2C386.586 176 386.636 179.65 386.536 183.15V198H355.036V96H380.236ZM487.954 93.9C502.054 93.9 512.054 96.15 517.954 100.65C523.854 105.15 526.854 111.8 526.954 120.6C527.054 127.6 524.954 132.65 520.654 135.75C516.454 138.85 508.854 140.4 497.854 140.4H457.504V125.55H489.004C492.404 125.55 494.554 125.25 495.454 124.65C496.354 123.95 496.804 122.35 496.804 119.85C496.804 117.45 496.204 115.9 495.004 115.2C493.804 114.5 491.754 114.15 488.854 114.15C485.954 114.05 483.754 114.35 482.254 115.05C480.754 115.75 479.704 117.3 479.104 119.7C478.604 122 478.354 125.65 478.354 130.65C478.354 135.25 478.654 138.85 479.254 141.45C479.954 144.05 481.254 145.9 483.154 147C485.054 148.1 487.854 148.65 491.554 148.65C494.554 148.65 498.754 148.55 504.154 148.35C509.654 148.15 515.604 147.7 522.004 147L524.854 165.9C521.354 167.7 517.604 169.1 513.604 170.1C509.604 171.1 505.454 171.8 501.154 172.2C496.954 172.6 492.604 172.8 488.104 172.8C477.704 172.8 469.354 171.35 463.054 168.45C456.754 165.55 452.204 161.25 449.404 155.55C446.704 149.75 445.354 142.6 445.354 134.1C445.354 124.2 446.754 116.35 449.554 110.55C452.354 104.65 456.854 100.4 463.054 97.8C469.354 95.2 477.654 93.9 487.954 93.9Z" fill="#0B334C"/>
</svg>
