<svg width="212" height="190" viewBox="0 0 212 190" fill="none" xmlns="http://www.w3.org/2000/svg">
<path d="M13.4234 68.6221L24.6181 101.772C25.7126 105.014 23.3019 108.372 19.8809 108.372H6.96587C3.54483 108.372 1.13415 105.014 2.2287 101.772L13.4234 68.6221Z" fill="#0B334C"/>
<path d="M13.4234 68.6221L24.6181 101.772C25.7126 105.014 23.3019 108.372 19.8809 108.372H6.96587C3.54483 108.372 1.13415 105.014 2.2287 101.772L13.4234 68.6221Z" fill="url(#paint0_linear_85_420)" fill-opacity="0.2" style="mix-blend-mode:plus-darker"/>
<path d="M22.9234 76.1221C22.9234 81.3688 18.6701 85.6221 13.4234 85.6221C8.17669 85.6221 3.92339 81.3688 3.92339 76.1221C3.92339 70.8754 8.17669 66.6221 13.4234 66.6221C18.6701 66.6221 22.9234 70.8754 22.9234 76.1221Z" fill="#0B334C"/>
<path d="M22.9234 76.1221C22.9234 81.3688 18.6701 85.6221 13.4234 85.6221C8.17669 85.6221 3.92339 81.3688 3.92339 76.1221C3.92339 70.8754 8.17669 66.6221 13.4234 66.6221C18.6701 66.6221 22.9234 70.8754 22.9234 76.1221Z" fill="url(#paint1_linear_85_420)" fill-opacity="0.2" style="mix-blend-mode:plus-darker"/>
<path d="M9.92339 40.6221H15.9234V68.6221H9.92339V40.6221Z" fill="#0B334C"/>
<path d="M9.92339 40.6221H15.9234V68.6221H9.92339V40.6221Z" fill="url(#paint2_linear_85_420)" fill-opacity="0.2" style="mix-blend-mode:plus-darker"/>
<path d="M209.897 36.8082C212.761 37.8283 212.481 42.0599 209.526 42.7752C170.222 52.289 135.215 69.6887 107.971 92.6319C106.832 93.5908 105.168 93.5906 104.029 92.631C76.9219 69.7738 42.8142 52.4185 4.21784 42.8817C1.28219 42.1564 0.999851 37.9583 3.84203 36.9257L104.986 0.180315C105.641 -0.057857 106.359 -0.0601506 107.016 0.17383L209.897 36.8082Z" fill="#0B334C"/>
<path d="M169.484 155.27C169.484 155.889 168.927 156.359 168.315 156.264C164.134 155.615 159.816 155.274 155.401 155.274C135.788 155.274 119.073 161.989 106.668 172.727C106.284 173.059 105.716 173.059 105.332 172.729C92.8584 161.989 74.2145 155.275 54.6006 155.274C50.699 155.274 46.8734 155.54 43.1508 156.05C42.5446 156.133 42 155.665 42 155.053V64.2859C42 63.5877 42.698 63.1048 43.3502 63.3542C66.7418 72.2992 87.9298 84.8442 105.346 99.7498C105.723 100.072 106.278 100.072 106.654 99.7495C124.076 84.8274 144.733 72.2712 168.134 63.3236C168.786 63.0742 169.484 63.557 169.484 64.2551V155.27Z" fill="#0B334C"/>
<path d="M169.484 155.27C169.484 155.889 168.927 156.359 168.315 156.264C164.134 155.615 159.816 155.274 155.401 155.274C135.788 155.274 119.073 161.989 106.668 172.727C106.284 173.059 105.716 173.059 105.332 172.729C92.8584 161.989 74.2145 155.275 54.6006 155.274C50.699 155.274 46.8734 155.54 43.1508 156.05C42.5446 156.133 42 155.665 42 155.053V64.2859C42 63.5877 42.698 63.1048 43.3502 63.3542C66.7418 72.2992 87.9298 84.8442 105.346 99.7498C105.723 100.072 106.278 100.072 106.654 99.7495C124.076 84.8274 144.733 72.2712 168.134 63.3236C168.786 63.0742 169.484 63.557 169.484 64.2551V155.27Z" fill="url(#paint3_linear_85_420)" fill-opacity="0.1" style="mix-blend-mode:plus-darker"/>
<path d="M182.489 67.4074C184.414 66.8074 186.355 68.2483 186.355 70.2531V165.84C186.355 167.699 184.672 169.102 182.827 168.797C179.052 168.172 176.366 167.847 171.419 167.847C146.258 167.847 124.357 175.365 108.085 188.812C106.904 189.788 105.181 189.789 104 188.812C87.7278 175.365 64.151 167.847 38.9902 167.847C34.7371 167.847 32.5684 168.088 29.4727 168.552C27.6451 168.826 26 167.429 26 165.592V70.2776C26 68.2723 27.9421 66.831 29.8672 67.4319C31.1707 67.8387 32.4676 68.2558 33.7578 68.6828C34.9811 69.0877 35.7998 70.2297 35.7998 71.511V158.611C35.7998 160.447 37.4456 161.85 39.2822 161.644C42.6907 161.261 46.1726 161.063 49.7109 161.063C70.685 161.063 90.3481 167.176 104 178.312C105.189 179.282 106.913 179.282 108.103 178.312C121.755 167.176 140.034 161.063 161.008 161.063C165.095 161.063 169.106 161.327 173.017 161.835C174.872 162.076 176.555 160.668 176.556 158.809V71.4846C176.556 70.2029 177.375 69.061 178.599 68.6565C179.889 68.23 181.186 67.8138 182.489 67.4074Z" fill="#0B334C"/>
<path d="M160.298 98.3651C160.969 98.4215 161.424 99.0728 161.248 99.7228L153.147 129.595C152.836 130.738 151.175 130.617 151.034 129.44L149.614 117.539C149.432 116.015 147.674 115.255 146.44 116.167L107.422 144.983C106.72 145.501 105.763 145.505 105.057 144.991L57.459 110.338C56.1866 109.412 56.4332 107.447 57.895 106.864L60.1562 105.962C60.7098 105.741 61.3331 105.778 61.8562 106.064L105.11 129.694C105.8 130.07 106.646 130.008 107.273 129.535L138.57 105.933C139.753 105.041 139.589 103.218 138.267 102.55L128.879 97.8115C127.821 97.2769 128.274 95.6738 129.456 95.7731L160.298 98.3651Z" fill="white"/>
<defs>
<linearGradient id="paint0_linear_85_420" x1="13" y1="43.8125" x2="13" y2="52.3125" gradientUnits="userSpaceOnUse">
<stop/>
<stop offset="1" stop-opacity="0"/>
</linearGradient>
<linearGradient id="paint1_linear_85_420" x1="13" y1="43.8125" x2="13" y2="52.3125" gradientUnits="userSpaceOnUse">
<stop/>
<stop offset="1" stop-opacity="0"/>
</linearGradient>
<linearGradient id="paint2_linear_85_420" x1="13" y1="43.8125" x2="13" y2="52.3125" gradientUnits="userSpaceOnUse">
<stop/>
<stop offset="1" stop-opacity="0"/>
</linearGradient>
<linearGradient id="paint3_linear_85_420" x1="170" y1="116.813" x2="42" y2="115.813" gradientUnits="userSpaceOnUse">
<stop offset="0.3" stop-opacity="0"/>
<stop offset="0.500737"/>
<stop offset="0.7" stop-opacity="0"/>
</linearGradient>
</defs>
</svg>
