<svg width="211" height="174" viewBox="0 0 211 174" fill="none" xmlns="http://www.w3.org/2000/svg">
<path d="M208.041 36.8082C210.905 37.8283 210.625 42.0599 207.67 42.7752C168.366 52.289 133.359 69.6887 106.114 92.6319C104.976 93.5908 103.311 93.5906 102.173 92.631C75.0656 69.7738 40.958 52.4185 2.3616 42.8817C-0.574041 42.1564 -0.85638 37.9583 1.9858 36.9257L103.129 0.180315C103.785 -0.057857 104.503 -0.0601506 105.16 0.17383L208.041 36.8082Z" fill="#37B050"/>
<path d="M167.628 155.27C167.628 155.889 167.071 156.359 166.459 156.264C162.278 155.615 157.96 155.274 153.545 155.274C133.932 155.274 117.217 161.989 104.811 172.727C104.428 173.059 103.86 173.059 103.476 172.729C91.0021 161.989 72.3583 155.275 52.7444 155.274C48.8427 155.274 45.0172 155.54 41.2946 156.05C40.6884 156.133 40.1438 155.665 40.1438 155.053V64.2859C40.1438 63.5877 40.8417 63.1048 41.4939 63.3542C64.8856 72.2992 86.0736 84.8442 103.489 99.7498C103.866 100.072 104.421 100.072 104.798 99.7495C122.219 84.8274 142.876 72.2712 166.278 63.3236C166.93 63.0742 167.628 63.557 167.628 64.2551V155.27Z" fill="#3FA847"/>
</svg>
